<svg width="450pt" height="450pt" version="1.0" viewBox="0 0 450 450" xmlns="http://www.w3.org/2000/svg">
 <g transform="translate(0 450) scale(.1 -.1)" fill="#65631f">
  <path d="m2385 4175c-66-7-187-13-270-14-82-1-177-6-210-11-33-6-118-13-190-16-71-3-160-12-197-20s-84-14-105-14-47-7-57-15c-11-8-28-15-38-15-24 0-114-69-155-118-58-71-111-192-123-283-4-30-12-65-19-77-6-11-11-41-11-65s-7-66-15-93-15-74-15-104-5-71-11-90c-18-61-34-299-33-490 1-147 6-206 23-284 11-55 21-112 21-127s8-42 17-61c47-93 45-86 26-97-17-10-16-12 7-31 98-79 201-90 1018-109 378-9 480-14 509-26 19-8 46-15 58-15s28-7 35-15 18-15 25-15 40-20 73-44c33-25 63-42 66-39 3 4 6-1 6-9 0-11 6-14 19-11s21-2 26-16c3-12 10-21 15-21s12-15 15-32c4-18 12-39 18-46 7-9 5-18-5-30-19-21-34-182-15-163 27 27 37-1 15-42-17-28-80-97-90-97-4 0-8 9-8 20s7 20 15 20 15 7 15 15c0 22-13 18-40-13-14-15-32-31-40-35s-22-11-30-16c-37-22-93-41-190-64-95-22-114-24-195-15-49 5-225 8-390 5-273-4-305-7-359-26-33-11-71-21-86-21s-33-6-39-14c-7-8-38-18-69-21s-69-13-84-21c-14-7-37-14-51-14s-38-6-54-14c-15-8-46-23-67-33-22-10-51-28-65-41s-44-40-68-60c-23-20-43-41-43-45 0-5-9-16-21-26-11-9-29-41-40-71-19-53-19-58-3-145 9-49 24-98 33-109 50-57 157-70 336-41 50 8 128 15 175 15s126 7 175 15c50 8 122 15 160 15 39 0 111 7 160 15 50 8 122 15 160 15 39 0 102 7 140 15 39 8 102 15 140 15 39 0 105 7 148 15s109 15 145 15c37 1 96 7 132 15s93 14 127 15c34 0 74 5 90 11 15 6 57 14 93 19 100 12 175 43 260 106 66 50 171 159 213 223 17 25 42 57 55 71s28 34 33 45 18 34 29 50c11 17 22 37 25 45s13 28 21 43c7 16 14 36 14 45s7 30 15 46c8 15 15 43 15 61 0 17 7 54 15 81 9 29 15 90 15 150 0 58 7 133 17 175 15 69 15 77-2 148-10 42-24 83-32 92-7 8-13 22-13 31 0 23-102 118-127 118-7 0-26 8-40 18-25 16-77 17-761 15-485-1-751-5-785-13-28-6-54-7-59-2-12 12 1 42 19 42 9 0 13 8 11 22-3 20-34 45-85 67-11 5-24 15-28 20-3 6-14 11-24 11s-24 7-31 15-23 15-35 15-28 6-34 14-26 16-44 19c-50 8-109 33-124 53-7 10-13 32-13 48 0 17-7 40-15 50-8 11-15 37-15 58s-6 54-14 72c-12 30-12 37 0 55 29 40 40 25 59-80 13-72 23-102 34-106 9-2 28-11 43-19 14-8 35-14 46-14s25-7 32-15 20-15 30-15 23-7 30-15 19-15 26-15c8 0 14-4 14-9s9-12 20-16c11-3 54-40 96-81 77-75 115-91 122-53 6 30-199 219-237 219-5 0-14 7-21 15s-23 15-35 15-28 7-35 15-25 15-40 15-32 6-38 13c-15 19-34 183-30 267l3 75h40 40l3-138c3-153 14-187 59-187 14 0 37-6 51-14 15-8 48-24 74-36 27-12 50-26 54-31 3-5 14-9 25-9s22-7 25-15c4-8 10-15 15-15 9 0 23-11 84-62 42-36 55-35 55 2 0 17-4 30-8 30-16 0-82 71-82 88 0 20-66 81-97 88-12 3-24 12-27 20s-13 14-22 14c-8 0-33 17-55 37l-39 37v113c0 78 5 125 15 150 19 45 21 157 3 151-7-3-16-29-19-59-4-30-12-67-18-83-7-17-12-85-13-157 0-117 1-129 23-158 12-17 26-31 30-31 5 0 25-11 45-25 29-20 33-26 20-31-9-3-27 1-41 10-13 9-33 16-43 16s-28 10-39 23c-18 20-20 37-22 207-1 141 3 208 16 283l18 97 30-6c17-3 40-12 52-20s33-14 46-14 32-7 43-15c10-8 26-15 35-15s22-7 29-15 19-15 26-15c8 0 33-13 56-30 46-34 60-36 78-15 7 8 20 15 30 15s20 7 24 15c3 8 13 15 23 15s27 7 37 15c11 8 29 15 40 15 12 0 30 7 40 15 11 8 33 15 48 15 16 0 42 7 59 16 41 21 69 10 69-27 0-22-5-29-19-29-10 0-21-6-24-14-3-7-6-127-8-267l-2-254-25-27c-18-20-36-28-58-28-28 0-61-12-114-42-8-4-27-13-42-19-19-8-28-18-28-34 0-14-13-34-30-48-29-25-41-67-20-67 6 0 29 12 53 27 64 42 81 52 97 58 8 3 28 13 43 21 16 7 40 14 53 14 14 0 35 5 47 12 12 6 35 14 52 18 16 4 38 11 48 15 13 5 17 2 17-14 0-12-7-24-15-26-27-9-40-15-70-35-16-11-38-23-47-26-10-4-18-9-18-13s-27-26-60-50c-70-52-81-85-30-96 33-7 31-9 128 69 34 27 71 54 81 60 74 41 165 86 175 86 7 0 21 9 31 20 15 16 17 36 16 130-2 127 5 138 67 102 40-23 44-40 24-97-27-78-42-132-42-151 0-29-41-64-76-64-17 0-39-7-50-15-10-8-31-15-45-15-15 0-32-7-39-15s-19-15-27-15-32-13-53-30-42-30-46-30c-13-1-54-37-54-47 0-4 11-18 24-30 23-22 23-22 41-3 10 11 26 20 35 20 10 0 20 7 24 15 3 8 14 15 24 15 11 0 25 7 32 15s23 15 35 15 28 7 35 15 22 15 34 15c11 1 32 7 46 15s39 14 56 15c35 0 64 33 64 70 0 12 5 31 12 43 6 12 15 38 19 57 8 40 25 91 45 135 13 30 19 63 16 98-1 11-10 17-26 17-13 0-29 7-36 15s-20 15-30 15-23 7-30 15-20 15-30 15c-9 0-25 9-34 19-16 17-16 26-7 70 18 86 3 98-107 80-62-10-75-10-84 2-5 8-7 55-4 111 3 53 2 113-1 133-6 36-6 37-47 32-69-7-159-28-189-43-16-8-34-14-40-14s-44-16-85-36c-77-38-76-38-134-4-10 5-26 15-35 20-10 6-25 13-33 16s-28 12-45 19c-78 33-106 39-180 40h-80l-8-130c-10-157-14-164-87-147-78 18-89 8-92-84l-3-76-40-15c-22-8-51-18-64-22-39-11-49-36-28-70 9-16 17-46 17-66s5-46 11-57c7-12 15-47 20-77 10-74 31-144 48-165 7-9 26-16 42-16 15 0 31-4 34-10 3-5 24-14 45-20 22-6 40-15 40-20 0-6 11-10 25-10s28-7 31-15c4-8 12-15 19-15 6 0 30-13 52-29s49-31 59-33c11-2 20-13 22-27 4-23 2-24-50-18-29 4-93 10-143 13-49 4-102 13-117 20-15 8-34 14-42 14-18 0-94 50-120 79-11 12-26 19-36 16-9-3-25 4-35 15-16 18-17 23-5 45s11 32-3 73c-19 54-23 226-6 302 5 25 14 72 19 105 10 71 27 137 46 183 8 18 14 41 14 51s7 24 15 31 15 20 15 30 7 23 15 30 15 18 15 24c0 27 102 126 158 152 51 25 73 29 202 35 80 5 199 13 265 18 66 6 221 11 345 11 150 0 255 5 315 15 50 8 120 15 156 15 37 0 86 7 109 15s55 15 71 15c30 0 161 57 167 72 2 5 11 15 19 24 8 8 12 18 8 22s-10 1-12-5c-6-17-33-17-33 0 0 8 9 22 19 31 18 16 32 74 30 121v90c1 96-3 110-45 134-34 20-45 21-427 19-231 0-441-6-512-13zm784-101c53-6 61-10 61-28 0-12 7-30 15-40 8-11 15-37 15-59 0-101-133-181-365-217-50-8-260-16-555-21-471-8-576-15-700-50-47-13-129-61-168-98-35-34-72-98-72-124 0-13-7-32-15-43-13-18-14-17-15 17 0 19 7 44 15 55 8 10 15 25 15 33 0 7 14 31 31 52 34 43 35 76 4 71-24-4-55-41-87-102-12-25-26-46-30-48-5-2-8-16-8-30 0-15-6-47-14-72-35-109-68-328-73-479-6-172 24-316 97-466 33-69 56-96 108-129 69-43 112-47 627-51 270-3 558-10 640-15 204-14 344-12 369 6 23 16 74 18 96 4 11-7 4-11-26-16-49-7-61-14-64-34-5-36 0-40 54-40 80 0 94-8 56-31-17-11-29-23-26-28 3-4 58-7 123-5 103 4 124 1 164-17 36-16 51-31 67-65 12-25 22-55 22-68 0-40-46-205-76-273-8-17-14-34-14-37s-25-44-55-90-55-88-55-94c0-12-123-142-134-142-4 0-35-28-70-62-34-35-80-72-101-83-22-11-47-27-56-36s-42-36-74-59l-57-42-176-3c-98-2-204-8-237-14s-107-16-165-21c-216-18-326-31-355-41-16-5-66-12-110-16-87-6-125-22-125-53 0-19 5-20 73-15 39 3 86 8 102 11 34 6 218 28 415 49 74 8 176 19 225 25 132 14 298 13 293-2-3-7-22-14-44-15-48-3-291-30-399-45-44-6-125-14-180-18-122-10-260-26-381-46-49-8-115-14-145-14-30-1-65-7-79-15s-33-14-44-15c-15 0-17 5-12 31l6 31-48-5c-26-3-67-10-92-16-73-17-226-14-244 5-21 20-21 107-1 128 8 8 15 19 15 24 0 17 76 72 99 72 27 0 27-16 1-30-28-15-25-27 11-34 22-4 30-10 25-21-3-8 6-26 20-40 32-32 79-34 95-3 10 19 9 24-10 36-11 8-21 24-21 36-1 34-24 56-60 56-31 0-32 2-26 30 5 28 4 30-25 30-40 0-34 24 7 28 16 2 33 8 39 13 5 5 23 9 40 9 16 0 48 7 70 14 29 10 152 17 460 25 813 21 784 20 815 36 16 8 37 15 46 15 35 0 120 50 166 97 25 26 61 75 78 108 29 54 34 75 48 218s14 162 0 190c-8 18-21 44-28 59s-41 53-74 85c-164 156-189 161-833 165-260 1-518 6-574 9-97 7-179 30-179 51 0 5-11 13-25 18-28 11-68 68-60 88 2 7-7 33-21 58-16 29-30 78-39 137-52 348-62 598-27 722 53 191 66 236 89 315 14 47 27 104 30 127 3 28 12 47 26 56 25 16 142 53 202 63 22 4 71 20 110 37 74 30 177 48 407 69 130 12 154 22 127 54-14 17-135 19-189 4-20-5-81-14-135-20-122-12-205-26-310-52-44-11-105-26-135-34-30-7-56-11-59-9-2 3 1 5 7 5 7 0 12 6 12 14 0 22 49 76 69 76 9 0 25 6 36 13 33 22 125 49 200 58 39 5 108 13 155 19 47 5 309 14 584 19 274 5 501 12 504 15 7 8 215 7 291 0zm-1804-772c-6-41-8-44-16-24-8 22-4 64 9 87 10 17 14-16 7-63zm-38-169c-2-16-4-3-4 27s2 43 4 28c2-16 2-40 0-55zm1481-50c-2-32-9-78-16-103-6-25-19-80-29-122-16-75-18-78-45-78h-28v173c0 96 3 177 7 180 3 4 31 7 61 7h54l-4-57zm-1511-125c-2-13-4-3-4 22s2 35 4 23c2-13 2-33 0-45zm-240-80c-2-13-4-3-4 22s2 35 4 23c2-13 2-33 0-45zm1753-87c0-26-20-47-33-34-8 7 13 63 24 63 5 0 9-13 9-29zm-170-15c0-20-19-31-32-18-6 6-7 15-4 21 10 16 36 13 36-3zm-1490-391c0-8-4-15-10-15-5 0-10 7-10 15s5 15 10 15c6 0 10-7 10-15zm2195-154c39-8 38-9-20-10-33 0-67 4-75 9-19 12 37 13 95 1zm203-36c12-11-8-16-42-10-20 4-33 12-30 17 6 9 62 4 72-7zm56-21c23-9 20-23-4-17-11 3-20 9-20 14 0 11 3 11 24 3zm-2306-11c-10-2-26-2-35 0-10 3-2 5 17 5s27-2 18-5zm2357-21c30-21 55-67 54-101l-1-36-15 42c-8 23-25 53-39 65-31 30-31 53 1 30zm-65-83c15-28 4-38-15-13-17 22-19 34-5 34 5 0 14-9 20-21zm-2400-968c0-5-8-12-18-15-24-8-100-84-107-107-6-18-25-27-25-13 0 18 46 77 83 108 41 35 67 45 67 27zm-124-294c37-44 38-55 3-35-42 24-58 51-59 99 0 59 14 74 18 18 2-31 12-53 38-82zm400-42c-22-16-106-21-106-6 0 11 30 18 85 19 37 1 39 0 21-13z"/>
  <path d="m2195 3930c-3-5 3-10 15-10s18 5 15 10c-3 6-10 10-15 10s-12-4-15-10z"/>
  <path d="m3200 2026c0-25 16-36 55-36 13 0 27-4 30-10 8-13 62-13 70 0 19 31-47 70-122 70-28 0-33-4-33-24z"/>
  <path d="m3380 1970c-11-20-6-40 9-40 12 0 20 49 10 56-4 2-13-5-19-16z"/>
  <path d="m3357 1814c-4-4-7-14-7-23 0-11 3-12 11-4 6 6 10 16 7 23-2 6-7 8-11 4z"/>
  <path d="m3325 1727c-4-10-5-21-1-24 10-10 18 4 13 24-4 17-4 17-12 0z"/>
  <path d="m1508 1093c12-2 30-2 40 0 9 3-1 5-23 4-22 0-30-2-17-4z"/>
  <path d="m2004 3336c-4-10-2-26 4-35 7-9 16-26 22-39 10-23 36-39 47-29 7 8-19 63-46 97-18 23-20 24-27 6z"/>
  <path d="m2397 3315c-36-33-47-55-27-55 18 0 78 76 68 86-2 1-20-12-41-31z"/>
  <path d="m2118 3217c-57-55-67-93-42-151 10-22 24-47 31-54s13-20 13-27c0-8 6-18 13-22 25-16 47-72 47-120 0-61 21-93 60-93 37 0 44 12 45 80 2 57 11 83 70 189 46 83 46 124 2 171-37 40-83 61-148 67-43 4-48 2-91-40zm136-11c45-16 106-71 106-96 0-10-7-23-15-30s-15-21-15-32c0-10-7-21-15-24-8-4-15-14-15-24 0-21-40-89-53-90-4 0-7 37-5 83 3 81 3 82 31 85 21 3 27 9 27 28 0 24-2 25-57 22-50-3-58-6-61-24-2-15 4-23 19-27 17-5 20-11 15-29-3-13-6-42-6-65 0-24-4-43-9-43-13 0-68 92-85 141-11 32-11 46-1 76 8 23 21 39 32 41 10 2 22 8 28 13 13 12 33 11 79-5z"/>
  <path d="m2475 3249c-4-5-18-14-31-19-31-12-31-30 1-30 25 0 65 31 65 50 0 13-27 13-35-1z"/>
  <path d="m1974 3145c-8-21 4-35 32-35s31 17 7 36c-23 17-32 17-39-1z"/>
  <path d="m2423 3025c-7-19 5-35 26-35 10 0 24-7 31-15 19-23 32-18 28 11-2 20-12 29-41 39-32 11-39 11-44 0z"/>
  <path d="m1987 3019c-23-13-13-29 19-29 17 0 24 5 24 20 0 22-15 25-43 9z"/>
  <path d="m2385 2949c-9-14 24-49 47-49 24 0 23 15-2 40-22 22-36 25-45 9z"/>
  <path d="m2047 2934c-33-18-27-34 14-34 24 0 29 4 29 25 0 29-5 30-43 9z"/>
  <path d="m899 1916c-38-26-59-62-83-145-12-41-16-100-16-251 0-182 1-198 19-214 16-15 25-16 53-8 56 18 130 33 198 42 117 14 173 32 208 64 29 27 32 35 32 88 0 54-2 60-41 98-46 46-59 48-124 20-26-11-53-20-61-20-20 0-18 82 2 188l17 83-33 30c-60 55-114 63-171 25zm150-39c13-16 5-27-21-27-11 0-18 7-18 20 0 23 22 27 39 7zm-129-12c0-8-5-15-10-15-6 0-15-11-20-25s-14-25-20-25c-17 0-11 52 8 66 23 18 42 17 42-1z"/>
  <path d="m1507 1918c-50-27-89-67-117-120-20-37-23-58-23-153 0-92 3-118 22-157 45-97 109-134 177-102 46 22 124 100 145 145 8 19 23 50 33 69 12 25 17 62 17 124 1 82-1 91-27 129-57 81-149 107-227 65zm93-208c22-41-17-94-57-79-16 6-23 17-23 35 0 54 58 85 80 44z"/>
  <path d="m2437 1875c-20-19-40-35-45-35s-24 14-42 31l-32 31-25-26c-13-14-30-26-37-26-17 0-46-33-46-52 0-9 27-43 60-77l60-62v-69c0-66 13-147 30-180 5-11 22-14 59-13 29 0 55 4 58 7 11 10 32 132 33 184 0 48 7 70 41 132 5 8 18 35 31 58l22 44-49 43c-28 25-57 44-66 45-9 0-32-16-52-35z"/>
  <path d="m1993 1882c-36-8-113-68-113-89 0-8-7-24-15-37-12-18-16-55-18-141l-2-117 40-34c35-30 47-34 98-34 33 0 71 6 85 14 15 8 34 17 42 20 55 21 70 41 70 92 0 76-61 103-151 68-35-14-42-15-50-3-16 26-10 85 12 113 25 31 41 30 49-5 5-20 13-24 52-27s49 1 67 24c19 24 19 28 6 55-8 15-15 34-15 42 0 42-85 73-157 59zm12-298c25-16 35-54 14-54-25 0-49 22-49 45 0 29 3 30 35 9z"/>
 </g>
</svg>
